<svg width="54" height="31" viewBox="0 0 54 31" fill="none" xmlns="http://www.w3.org/2000/svg">
<g clip-path="url(#clip0_22_28)">
<path d="M24.1211 30.7227C25.6445 30.7227 26.9336 29.5508 26.9336 27.3828V3.37891C26.9336 1.21094 25.6445 0.0390625 24.1211 0.0390625C23.3203 0.0390625 22.6758 0.292969 21.875 0.761719L1.97266 12.4805C0.585938 13.3008 0 14.2578 0 15.3711C0 16.5039 0.585938 17.4609 1.97266 18.2812L21.875 30C22.6562 30.4688 23.3203 30.7227 24.1211 30.7227ZM50.957 30.7227C52.4805 30.7227 53.7695 29.5508 53.7695 27.3828V3.37891C53.7695 1.21094 52.4805 0.0390625 50.957 0.0390625C50.1562 0.0390625 49.5117 0.292969 48.7109 0.761719L28.8086 12.4805C27.4219 13.3008 26.8359 14.2578 26.8359 15.3711C26.8359 16.5039 27.4219 17.4609 28.8086 18.2812L48.7109 30C49.4922 30.4688 50.1562 30.7227 50.957 30.7227Z" fill="white" fill-opacity="0.85"/>
</g>
<defs>
<clipPath id="clip0_22_28">
<rect width="53.7695" height="30.7227" fill="white"/>
</clipPath>
</defs>
</svg>
