<svg width="54" height="31" viewBox="0 0 54 31" fill="none" xmlns="http://www.w3.org/2000/svg">
<g clip-path="url(#clip0_22_32)">
<path d="M2.8125 30.7227C3.61328 30.7227 4.27734 30.4688 5.05859 30L24.9609 18.2812C26.3477 17.4609 26.9531 16.5039 26.9531 15.3711C26.9531 14.2578 26.3477 13.3008 24.9609 12.4805L5.05859 0.761719C4.25781 0.292969 3.61328 0.0390625 2.8125 0.0390625C1.28906 0.0390625 0 1.21094 0 3.37891V27.3828C0 29.5508 1.28906 30.7227 2.8125 30.7227ZM29.6484 30.7227C30.4492 30.7227 31.1133 30.4688 31.8945 30L51.8164 18.2812C53.1836 17.4609 53.7891 16.5039 53.7891 15.3711C53.7891 14.2578 53.1836 13.3008 51.8164 12.4805L31.8945 0.761719C31.1133 0.292969 30.4492 0.0390625 29.6484 0.0390625C28.125 0.0390625 26.8359 1.21094 26.8359 3.37891V27.3828C26.8359 29.5508 28.125 30.7227 29.6484 30.7227Z" fill="white" fill-opacity="0.85"/>
</g>
<defs>
<clipPath id="clip0_22_32">
<rect width="53.7891" height="30.7227" fill="white"/>
</clipPath>
</defs>
</svg>
