<svg width="30" height="30" viewBox="0 0 30 30" fill="none" xmlns="http://www.w3.org/2000/svg">
<path d="M15 30C23.2059 30 30 23.1912 30 15C30 6.79412 23.1912 0 14.9853 0C6.79412 0 0 6.79412 0 15C0 23.1912 6.80883 30 15 30ZM7.92648 17.2059C6.70589 17.2059 5.70588 16.2206 5.70588 14.9853C5.70588 13.7647 6.70589 12.7794 7.92648 12.7794C9.13236 12.7794 10.1324 13.7647 10.1324 14.9853C10.1324 16.2206 9.14706 17.2059 7.92648 17.2059ZM15 17.2059C13.7794 17.2059 12.7794 16.2206 12.7794 14.9853C12.7794 13.7647 13.7794 12.7794 15 12.7794C16.2206 12.7794 17.2059 13.7647 17.2059 14.9853C17.2059 16.2206 16.2206 17.2059 15 17.2059ZM22.0883 17.2059C20.853 17.2059 19.8676 16.2206 19.8676 14.9853C19.8676 13.7647 20.853 12.7794 22.0883 12.7794C23.2941 12.7794 24.2941 13.7647 24.2941 14.9853C24.2941 16.2206 23.2941 17.2059 22.0883 17.2059Z" fill="#8E8E92" fill-opacity="0.4"/>
</svg>
