<svg width="30" height="40" viewBox="0 0 30 40" fill="none" xmlns="http://www.w3.org/2000/svg">
<g clip-path="url(#clip0_22_36)">
<path d="M3.24707 39.7705H8.81348C10.9375 39.7705 12.0605 38.6475 12.0605 36.499V3.24707C12.0605 1.02539 10.9375 0 8.81348 0H3.24707C1.12305 0 0 1.12305 0 3.24707V36.499C0 38.6475 1.12305 39.7705 3.24707 39.7705ZM20.9961 39.7705H26.5381C28.6865 39.7705 29.7852 38.6475 29.7852 36.499V3.24707C29.7852 1.02539 28.6865 0 26.5381 0H20.9961C18.8477 0 17.7246 1.12305 17.7246 3.24707V36.499C17.7246 38.6475 18.8477 39.7705 20.9961 39.7705Z" fill="white" fill-opacity="0.85"/>
</g>
<defs>
<clipPath id="clip0_22_36">
<rect width="29.7852" height="39.7705" fill="white"/>
</clipPath>
</defs>
</svg>
